<svg width="22" height="22" viewBox="0 0 22 22" fill="none" xmlns="http://www.w3.org/2000/svg">
<path d="M15.125 1.09998C14.9062 1.09998 14.6963 1.18689 14.5416 1.34161C14.3869 1.49633 14.3 1.70617 14.3 1.92498C14.3 4.3579 12.169 5.22498 10.175 5.22498H4.39998C3.52476 5.22498 2.68539 5.57265 2.06652 6.19152C1.44765 6.81039 1.09998 7.64976 1.09998 8.52497L1.09998 10.175C1.10178 10.6689 1.21503 11.1561 1.4313 11.6002C1.64756 12.0443 1.96127 12.4339 2.34903 12.7399L5.29593 19.3168C5.50551 19.7879 5.84717 20.1882 6.27955 20.4692C6.71193 20.7502 7.21649 20.8998 7.73215 20.9C8.14243 20.8997 8.54613 20.7968 8.90651 20.6007C9.26689 20.4046 9.57249 20.1215 9.79552 19.7771C10.0185 19.4327 10.1519 19.0381 10.1834 18.629C10.215 18.2199 10.1437 17.8095 9.97615 17.435L8.16115 13.475H10.175C12.169 13.475 14.3 14.342 14.3 16.775C14.3 16.9938 14.3869 17.2036 14.5416 17.3583C14.6963 17.5131 14.9062 17.6 15.125 17.6C15.3438 17.6 15.5536 17.5131 15.7083 17.3583C15.8631 17.2036 15.95 16.9938 15.95 16.775V1.92498C15.95 1.70617 15.8631 1.49633 15.7083 1.34161C15.5536 1.18689 15.3438 1.09998 15.125 1.09998ZM8.473 18.1106C8.52765 18.2341 8.55063 18.3692 8.53986 18.5037C8.5291 18.6382 8.48492 18.7679 8.41135 18.8811C8.33777 18.9942 8.23712 19.0872 8.11852 19.1517C7.99992 19.2161 7.86712 19.2499 7.73215 19.25C7.5353 19.2498 7.34273 19.1925 7.17782 19.085C7.01291 18.9775 6.88277 18.8245 6.8032 18.6444L4.4866 13.475H6.34615L8.473 18.1106ZM14.3 13.145C13.1213 12.2368 11.6619 11.7698 10.175 11.825H4.39998C3.96237 11.825 3.54268 11.6511 3.23325 11.3417C2.92381 11.0323 2.74998 10.6126 2.74998 10.175V8.52497C2.74998 8.08737 2.92381 7.66768 3.23325 7.35825C3.54268 7.04881 3.96237 6.87498 4.39998 6.87498H10.175C11.6614 6.93132 13.1207 6.4658 14.3 5.5591V13.145Z" fill="#CFD8E3"/>
<path d="M20.8175 13.8479C20.7691 13.9449 20.702 14.0314 20.6202 14.1025C20.5384 14.1736 20.4433 14.2278 20.3405 14.2622C20.2377 14.2965 20.1291 14.3102 20.021 14.3026C19.9128 14.2949 19.8073 14.266 19.7103 14.2175L18.0603 13.3925C17.8645 13.2947 17.7155 13.1231 17.6462 12.9155C17.5769 12.7079 17.5929 12.4812 17.6907 12.2854C17.7885 12.0895 17.9601 11.9406 18.1678 11.8713C18.3754 11.802 18.602 11.818 18.7979 11.9158L20.4479 12.7408C20.6427 12.8385 20.7909 13.0094 20.8602 13.2161C20.9294 13.4227 20.9141 13.6484 20.8175 13.8438V13.8479ZM17.6907 6.42293C17.6423 6.32597 17.6134 6.22041 17.6057 6.11229C17.598 6.00416 17.6118 5.89558 17.6461 5.79276C17.6804 5.68994 17.7347 5.59489 17.8057 5.51305C17.8768 5.43121 17.9633 5.36417 18.0603 5.31578L19.7103 4.49078C19.9062 4.39297 20.1328 4.37697 20.3404 4.44628C20.5481 4.51559 20.7197 4.66455 20.8175 4.86038C20.9153 5.05621 20.9313 5.28287 20.862 5.4905C20.7927 5.69813 20.6437 5.86972 20.4479 5.96753L18.7979 6.79253C18.7009 6.841 18.5954 6.86989 18.4872 6.87755C18.3791 6.88521 18.2705 6.87149 18.1677 6.83716C18.0649 6.80284 17.9698 6.74859 17.888 6.67751C17.8062 6.60643 17.7391 6.51992 17.6907 6.42293ZM17.6 9.35003C17.6 9.13122 17.6869 8.92138 17.8416 8.76667C17.9963 8.61195 18.2062 8.52503 18.425 8.52503H20.075C20.2938 8.52503 20.5036 8.61195 20.6583 8.76667C20.8131 8.92138 20.9 9.13122 20.9 9.35003C20.9 9.56883 20.8131 9.77867 20.6583 9.93339C20.5036 10.0881 20.2938 10.175 20.075 10.175H18.425C18.2062 10.175 17.9963 10.0881 17.8416 9.93339C17.6869 9.77867 17.6 9.56883 17.6 9.35003Z" fill="#CFD8E3"/>
</svg>
