<svg width="20" height="20" viewBox="0 0 20 20" fill="none" xmlns="http://www.w3.org/2000/svg">
<path d="M7.39407 18.0405V15.2293C7.39406 14.5143 7.97698 13.9333 8.69922 13.9285H11.3448C12.0705 13.9285 12.6588 14.5109 12.6588 15.2293V15.2293V18.0492C12.6586 18.6563 13.148 19.1525 13.7611 19.1667H15.5248C17.283 19.1667 18.7083 17.7557 18.7083 16.0151V16.0151V8.01806C18.6989 7.3333 18.3741 6.69028 17.8264 6.27199L11.7945 1.46157C10.7378 0.623976 9.23565 0.623976 8.17893 1.46157L2.17348 6.28072C1.6237 6.69731 1.2984 7.3414 1.29163 8.02679V16.0151C1.29163 17.7557 2.71693 19.1667 4.47513 19.1667H6.23884C6.86712 19.1667 7.37644 18.6625 7.37644 18.0405V18.0405" stroke="#F39400" stroke-width="1.5" stroke-linecap="round" stroke-linejoin="round"/>
</svg>
