<svg width="22" height="22" viewBox="0 0 22 22" fill="none" xmlns="http://www.w3.org/2000/svg">
<path d="M10.5346 2.55664H7.1072C4.28845 2.55664 2.52112 4.55222 2.52112 7.37739V14.9986C2.52112 17.8237 4.2802 19.8193 7.1072 19.8193H15.1959C18.0238 19.8193 19.7829 17.8237 19.7829 14.9986V11.3062" stroke="#F39400" stroke-width="1.5" stroke-linecap="round" stroke-linejoin="round"/>
<path fill-rule="evenodd" clip-rule="evenodd" d="M8.0922 10.0109L14.9424 3.16062C15.7959 2.30812 17.1791 2.30812 18.0325 3.16062L19.1481 4.2762C20.0015 5.12961 20.0015 6.51378 19.1481 7.36628L12.2649 14.2495C11.8918 14.6226 11.3858 14.8325 10.8578 14.8325H7.42395L7.51012 11.3675C7.52295 10.8579 7.73103 10.372 8.0922 10.0109Z" stroke="#F39400" stroke-width="1.5" stroke-linecap="round" stroke-linejoin="round"/>
<path d="M13.9015 4.21899L18.087 8.40449" stroke="#F39400" stroke-width="1.5" stroke-linecap="round" stroke-linejoin="round"/>
</svg>
