<svg width="22" height="22" viewBox="0 0 22 22" fill="none" xmlns="http://www.w3.org/2000/svg">
<path fill-rule="evenodd" clip-rule="evenodd" d="M11 1.83337C16.0626 1.83337 20.1667 5.93744 20.1667 11C20.1667 16.0626 16.0626 20.1667 11 20.1667C5.93744 20.1667 1.83337 16.0626 1.83337 11C1.83337 5.93744 5.93744 1.83337 11 1.83337Z" stroke="#F39400" stroke-width="1.5" stroke-linecap="round" stroke-linejoin="round"/>
<path fill-rule="evenodd" clip-rule="evenodd" d="M13.7959 11.428C13.1277 12.1485 11.309 13.3677 10.3786 13.7591C10.2301 13.8215 9.85152 13.9535 9.76993 13.9553C9.59668 13.9608 9.42985 13.8636 9.34918 13.7078C9.31802 13.6473 9.22635 13.2522 9.19702 13.0762C9.10993 12.5409 9.06502 11.7095 9.06593 10.8735C9.06502 9.99622 9.1136 9.12538 9.21077 8.59555C9.23643 8.45255 9.3116 8.12347 9.3336 8.0703C9.37485 7.9713 9.45002 7.89338 9.54077 7.8448C9.61043 7.80722 9.69018 7.78705 9.76993 7.7898C9.85152 7.79163 10.1833 7.90805 10.297 7.95297C11.1935 8.3013 13.0901 9.56447 13.7868 10.307C13.8491 10.3739 14.0205 10.5535 14.0489 10.5902C14.114 10.6727 14.1461 10.7726 14.1461 10.8735C14.1461 10.967 14.1177 11.0623 14.059 11.142C14.0288 11.1833 13.8537 11.3666 13.7959 11.428Z" stroke="#F39400" stroke-width="1.5" stroke-linecap="round" stroke-linejoin="round"/>
</svg>
